<svg xmlns="http://www.w3.org/2000/svg" width="323" height="216" fill="none"><path fill="#000" d="M0 0h323v216H0z"/><g clip-path="url(#a)"><path fill="#fff" fill-rule="evenodd" d="M212.776 89.408a6.204 6.204 0 1 0 0-12.408 6.204 6.204 0 0 0 0 12.408zm-66.184 6.887c-10.983 0-19.897 8.934-19.897 19.895 0 10.96 8.935 19.894 19.897 19.894 10.961 0 19.896-8.934 19.896-19.894 0-10.961-8.914-19.895-19.896-19.895zm0 30.379c-5.771 0-10.466-4.694-10.466-10.464 0-5.77 4.695-10.464 10.466-10.464 5.77 0 10.465 4.694 10.465 10.464 0 5.77-4.695 10.464-10.465 10.464zm-42.152-30.42c.517 0 1.014.02 1.531.062 4.343.372 8.335 2.378 11.251 5.645a17.657 17.657 0 0 1 4.53 11.809v21.508h-9.514v-21.777c-.021-4.281-3.558-7.776-7.86-7.776-.248 0-.517.021-.785.042-3.847.393-7.074 4.032-7.074 7.961v21.55h-9.514v-21.715c-.02-4.302-3.537-7.817-7.838-7.817-.249 0-.517.021-.786.041-3.827.393-7.074 4.033-7.074 7.983v21.508H62v-21.777c0-9.513 7.756-17.247 17.27-17.247 4.757 0 9.286 1.985 12.554 5.438a17.286 17.286 0 0 1 12.616-5.438zm76.692-18.323h-9.515v57.388h9.515V77.931zm8.686 0h9.514v57.388h-9.514V77.931zm27.715 19.315h-9.515v38.052h9.515V97.246zm38.944 4.633c3.558 3.619 5.523 8.375 5.523 13.421v4.364h-28.935a10.685 10.685 0 0 0 10.3 7.817c3.785 0 7.197-1.923 9.162-5.17l.393-.641 7.86 3.867-.455.765c-3.578 6.018-10.135 9.761-17.125 9.761h-.021c-5.337 0-10.342-2.109-14.127-5.935-3.784-3.826-5.832-8.872-5.77-14.207a19.839 19.839 0 0 1 5.812-13.836 19.728 19.728 0 0 1 13.816-5.831h.248c5.026 0 9.741 2.006 13.319 5.625zm-4.095 9.926c-1.365-4.053-5.253-6.907-9.596-6.907-4.344 0-8.232 2.854-9.576 6.907h19.172z" clip-rule="evenodd"/></g><defs><clipPath id="a"><path fill="#fff" d="M62 77h200v59.167H62z"/></clipPath></defs></svg>